# xmcd CD database file
#
# Track frame offsets:
#	150
#	16875
#	35325
#	55500
#
# Disc length: 960 seconds
#
# Revision: 0
# Processed by: cddbd v1.5PL3 Copyright (c) Steve Scherf et al.
# Submitted via: CDex 1.50beta9
#
DISCID=2203be04
DTITLE=UZI - ひとり酒
DYEAR=2003
DGENRE=Hip Hop
TTITLE0=ひとり酒
TTITLE1=チェンジ
TTITLE2=開放軍II〜確変キャバチャンREMIX
TTITLE3=ひとり酒〜instrumental
EXTD=YEAR: 2003
EXTT0=
EXTT1=
EXTT2=
EXTT3=
PLAYORDER=
